<svg width="46" height="10" viewBox="0 0 46 10" fill="none" xmlns="http://www.w3.org/2000/svg">
<path fill-rule="evenodd" clip-rule="evenodd" d="M18.1919 9.64247V0.0515388C18.1919 0.0232227 18.2154 0.000244141 18.2445 0.000244141H20.3003C20.3294 0.000244141 20.353 0.0232227 20.353 0.0515388V9.64247C20.353 9.6707 20.3294 9.69368 20.3003 9.69368H18.2445C18.2154 9.69368 18.1919 9.6707 18.1919 9.64247Z" fill="#8B8D92"/>
<path fill-rule="evenodd" clip-rule="evenodd" d="M7.27407 0.000244141H4.74401H4.7176H2.60918H2.58287H0.0527174C0.0236159 0.000244141 0 0.0232227 0 0.0514484V1.89797C0 1.92628 0.0236159 1.94917 0.0527174 1.94917H2.55647C2.57106 1.94917 2.58287 1.96066 2.58287 1.97486V9.64247C2.58287 9.67079 2.60649 9.69368 2.6355 9.69368H4.69129C4.72039 9.69368 4.74401 9.67079 4.74401 9.64247V1.97486C4.74401 1.96066 4.75581 1.94917 4.77032 1.94917H7.27407C7.30317 1.94917 7.32678 1.92628 7.32678 1.89797V0.0514484C7.32678 0.0232227 7.30317 0.000244141 7.27407 0.000244141Z" fill="#8B8D92"/>
<path fill-rule="evenodd" clip-rule="evenodd" d="M33.3662 7.71915V0.0515388C33.3662 0.0232227 33.3426 0.000244141 33.3136 0.000244141H31.3105C31.2814 0.000244141 31.2578 0.0232227 31.2578 0.0515388V7.74475V8.15501C31.2578 9.00486 31.9657 9.69368 32.8391 9.69368H33.3662H37.4777C37.5068 9.69368 37.5303 9.6707 37.5303 9.64247V7.79604C37.5303 7.76773 37.5068 7.74475 37.4777 7.74475H33.3925C33.378 7.74475 33.3662 7.73326 33.3662 7.71915Z" fill="#8B8D92"/>
<path fill-rule="evenodd" clip-rule="evenodd" d="M40.9546 7.71915V5.82558C40.9546 5.81147 40.9664 5.79998 40.981 5.79998H44.6945C44.7236 5.79998 44.7471 5.777 44.7471 5.74869V3.90235C44.7471 3.87394 44.7236 3.85106 44.6945 3.85106H40.981C40.9664 3.85106 40.9546 3.83957 40.9546 3.82536V1.97486C40.9546 1.96066 40.9664 1.94917 40.981 1.94917H45.0377C45.0668 1.94917 45.0904 1.92619 45.0904 1.89788V0.0515388C45.0904 0.0232227 45.0668 0.000244141 45.0377 0.000244141H40.9546H38.8989C38.8698 0.000244141 38.8462 0.0232227 38.8462 0.0515388V1.94917V3.85106V5.79998V7.74475V8.15501C38.8462 9.00486 39.5541 9.69368 40.4275 9.69368H40.9546H45.1714C45.2006 9.69368 45.2242 9.6707 45.2242 9.64247V7.79604C45.2242 7.76773 45.2006 7.74475 45.1714 7.74475H40.981C40.9664 7.74475 40.9546 7.73326 40.9546 7.71915Z" fill="#8B8D92"/>
<path fill-rule="evenodd" clip-rule="evenodd" d="M13.5467 3.41795C13.5467 3.94203 13.1102 4.36678 12.5716 4.36678H11.2223C11.2077 4.36678 11.1959 4.35529 11.1959 4.34118V1.97435C11.1959 1.96024 11.2077 1.94875 11.2223 1.94875H12.5716C13.1102 1.94875 13.5467 2.3735 13.5467 2.89758V3.41795ZM16.4273 9.61975L14.5005 5.80019C14.495 5.78924 14.4983 5.77612 14.5084 5.7688C15.2058 5.26407 15.6579 4.45637 15.6579 3.54563V2.76959C15.6579 1.23996 14.3835 0 12.8115 0H11.1964H9.14061C9.11151 0 9.08789 0.0229789 9.08789 0.051205V6.31522V9.64237C9.08789 9.6706 9.11151 9.69358 9.14061 9.69358H11.1437C11.1728 9.69358 11.1964 9.6706 11.1964 9.64237V6.34101C11.1964 6.32671 11.2082 6.31522 11.2227 6.31522H12.4466C12.4676 6.31522 12.4866 6.32744 12.495 6.34616L13.9666 9.64726C13.9792 9.67539 14.0076 9.69358 14.0392 9.69358H16.38C16.419 9.69358 16.4444 9.65377 16.4273 9.61975Z" fill="#8B8D92"/>
<path fill-rule="evenodd" clip-rule="evenodd" d="M27.2031 3.5988C27.2031 4.12278 26.7665 4.54761 26.228 4.54761H24.8785C24.864 4.54761 24.8522 4.53612 24.8522 4.52192V1.97356C24.8522 1.95945 24.864 1.94796 24.8785 1.94796H26.228C26.7665 1.94796 27.2031 2.3727 27.2031 2.89677V3.5988ZM26.4671 0H24.8526H22.7969C22.7678 0 22.7441 0.0229786 22.7441 0.0512042V6.49642V9.64223C22.7441 9.67045 22.7678 9.69343 22.7969 9.69343H24.7998C24.8289 9.69343 24.8526 9.67045 24.8526 9.64223V6.52203C24.8526 6.50791 24.8644 6.49642 24.8789 6.49642H26.4671C28.039 6.49642 29.3135 5.25639 29.3135 3.72687V2.76955C29.3135 1.23994 28.039 0 26.4671 0Z" fill="#8B8D92"/>
</svg>
