<svg width="27" height="11" viewBox="0 0 27 11" fill="none" xmlns="http://www.w3.org/2000/svg">
<path d="M6.5925 5.42141L4.62503 1.62612C4.08361 0.62497 2.9714 0.137134 1.85919 0.413817C0.746979 0.6905 0 1.63887 0 2.77472V9.41511C0 9.49884 0.0679072 9.56619 0.152332 9.56619H2.00785C2.09228 9.56619 2.16018 9.49884 2.16018 9.41511V2.80203C2.16018 2.7456 2.16018 2.54537 2.38593 2.48894C2.60984 2.43251 2.71445 2.62 2.74015 2.66915L6.39979 9.40601C6.45302 9.5043 6.5558 9.56437 6.66775 9.56437H8.58934C8.67377 9.56437 8.74167 9.49702 8.74167 9.41329V0.603125C8.74167 0.519392 8.67377 0.452044 8.58934 0.452044H6.74484C6.66041 0.452044 6.5925 0.519392 6.5925 0.603125V5.41959V5.42141Z" fill="#8B8D92"/>
<path d="M14.5919 0C11.8366 0 9.59473 2.24861 9.59473 5.01227C9.59473 7.77592 11.8366 10.0245 14.5919 10.0245C17.3473 10.0245 19.5892 7.77592 19.5892 5.01227C19.5892 2.24861 17.3473 0 14.5919 0ZM14.5919 7.89437C13.0085 7.89437 11.7185 6.60227 11.7185 5.01227C11.7185 3.42227 13.0067 2.13017 14.5919 2.13017C16.1772 2.13017 17.4654 3.42227 17.4654 5.01227C17.4654 6.60227 16.1772 7.89437 14.5919 7.89437Z" fill="#8B8D92"/>
<path d="M23.7848 7.39106C23.1516 7.39106 22.6377 6.88138 22.6377 6.25339V0.603229C22.6377 0.519496 22.5698 0.452148 22.4854 0.452148H20.5913C20.5069 0.452148 20.439 0.519496 20.439 0.603229V6.37353C20.439 8.13738 21.8797 9.5663 23.6581 9.5663H26.8479C26.9324 9.5663 27.0003 9.49895 27.0003 9.41522V7.54215C27.0003 7.45841 26.9324 7.39106 26.8479 7.39106H23.7848Z" fill="#8B8D92"/>
</svg>
